<svg width="134" height="42" viewBox="0 0 134 42" fill="none" xmlns="http://www.w3.org/2000/svg">
<path d="M10.2083 26.863C9.90826 27.289 9.54526 27.688 9.11926 28.06C8.69326 28.426 8.20726 28.726 7.66126 28.96C7.12126 29.188 6.51526 29.302 5.84326 29.302C5.08726 29.302 4.41226 29.146 3.81826 28.834C3.23026 28.516 2.72926 28.078 2.31526 27.52C1.90726 26.962 1.59526 26.314 1.37926 25.576C1.16926 24.832 1.06426 24.034 1.06426 23.182C1.06426 22.072 1.24726 21.073 1.61326 20.185C1.97926 19.291 2.51926 18.583 3.23326 18.061C3.95326 17.539 4.82926 17.278 5.86126 17.278C6.72526 17.278 7.52326 17.47 8.25526 17.854C8.98726 18.238 9.54226 18.772 9.92026 19.456C9.82426 19.564 9.68926 19.69 9.51526 19.834C9.34126 19.978 9.16426 20.116 8.98426 20.248C8.81026 20.374 8.66026 20.476 8.53426 20.554C8.49226 20.464 8.41426 20.329 8.30026 20.149C8.19226 19.969 8.03326 19.786 7.82326 19.6C7.61926 19.414 7.35226 19.255 7.02226 19.123C6.69226 18.985 6.28726 18.916 5.80726 18.916C5.45926 18.916 5.12026 19 4.79026 19.168C4.46026 19.33 4.16326 19.582 3.89926 19.924C3.63526 20.26 3.42526 20.698 3.26926 21.238C3.11326 21.772 3.03526 22.408 3.03526 23.146C3.03526 23.752 3.10726 24.319 3.25126 24.847C3.39526 25.375 3.59326 25.837 3.84526 26.233C4.09726 26.629 4.39126 26.938 4.72726 27.16C5.06326 27.382 5.42626 27.493 5.81626 27.493C6.31426 27.493 6.75826 27.394 7.14826 27.196C7.54426 26.992 7.88626 26.746 8.17426 26.458C8.46826 26.164 8.71726 25.888 8.92126 25.63C9.04726 25.708 9.19726 25.822 9.37126 25.972C9.54526 26.122 9.70726 26.278 9.85726 26.44C10.0133 26.596 10.1303 26.737 10.2083 26.863ZM16.2537 29.491C14.6817 29.491 13.5207 29.053 12.7707 28.177C12.0207 27.301 11.6457 26.041 11.6457 24.397C11.6457 23.359 11.8377 22.483 12.2217 21.769C12.6117 21.055 13.1517 20.512 13.8417 20.14C14.5377 19.768 15.3477 19.582 16.2717 19.582C17.2497 19.582 18.0567 19.81 18.6927 20.266C19.3287 20.716 19.7997 21.346 20.1057 22.156C20.4177 22.96 20.5737 23.896 20.5737 24.964C20.5737 25.882 20.4027 26.68 20.0607 27.358C19.7187 28.03 19.2237 28.555 18.5757 28.933C17.9337 29.305 17.1597 29.491 16.2537 29.491ZM16.1817 27.88C16.6677 27.88 17.0847 27.79 17.4327 27.61C17.7807 27.43 18.0627 27.19 18.2787 26.89C18.4947 26.584 18.6537 26.242 18.7557 25.864C18.8637 25.486 18.9177 25.099 18.9177 24.703C18.9177 23.983 18.8187 23.341 18.6207 22.777C18.4227 22.213 18.1227 21.772 17.7207 21.454C17.3187 21.13 16.8057 20.968 16.1817 20.968C15.5697 20.968 15.0567 21.115 14.6427 21.409C14.2287 21.703 13.9167 22.108 13.7067 22.624C13.5027 23.14 13.4007 23.731 13.4007 24.397C13.4007 25.423 13.6377 26.26 14.1117 26.908C14.5857 27.556 15.2757 27.88 16.1817 27.88ZM29.0866 29.185C29.0866 29.083 29.0836 28.93 29.0776 28.726C29.0716 28.516 29.0686 28.312 29.0686 28.114C29.0686 27.91 29.0686 27.76 29.0686 27.664C29.0266 27.736 28.9336 27.853 28.7896 28.015C28.6456 28.177 28.4416 28.348 28.1776 28.528C27.9196 28.708 27.5926 28.861 27.1966 28.987C26.8006 29.113 26.3296 29.176 25.7836 29.176C24.9796 29.176 24.2926 29.002 23.7226 28.654C23.1526 28.3 22.7176 27.808 22.4176 27.178C22.1236 26.548 21.9766 25.819 21.9766 24.991C21.9766 24.217 22.1266 23.497 22.4266 22.831C22.7266 22.159 23.1766 21.616 23.7766 21.202C24.3766 20.788 25.1266 20.581 26.0266 20.581C26.5666 20.581 27.0466 20.641 27.4666 20.761C27.8926 20.881 28.2466 21.025 28.5286 21.193C28.8166 21.355 29.0206 21.499 29.1406 21.625C29.1466 21.361 29.1616 21.034 29.1856 20.644C29.2156 20.254 29.2456 19.84 29.2756 19.402C29.3056 18.964 29.3356 18.541 29.3656 18.133C29.3956 17.719 29.4226 17.356 29.4466 17.044C29.4766 16.732 29.4976 16.513 29.5096 16.387C29.7496 16.387 30.0136 16.399 30.3016 16.423C30.5956 16.447 30.8476 16.48 31.0576 16.522C30.9496 17.926 30.8656 19.324 30.8056 20.716C30.7516 22.102 30.7156 23.503 30.6976 24.919C30.6796 26.329 30.6706 27.766 30.6706 29.23C30.5806 29.23 30.4276 29.227 30.2116 29.221C30.0016 29.221 29.7886 29.218 29.5726 29.212C29.3566 29.2 29.1946 29.191 29.0866 29.185ZM26.2156 27.52C26.6296 27.52 26.9986 27.46 27.3226 27.34C27.6466 27.214 27.9226 27.064 28.1506 26.89C28.3786 26.71 28.5646 26.533 28.7086 26.359C28.8586 26.179 28.9636 26.035 29.0236 25.927C29.0236 25.789 29.0236 25.588 29.0236 25.324C29.0296 25.054 29.0326 24.772 29.0326 24.478C29.0386 24.178 29.0416 23.899 29.0416 23.641C29.0476 23.383 29.0536 23.191 29.0596 23.065C28.9216 22.939 28.7146 22.801 28.4386 22.651C28.1686 22.501 27.8506 22.372 27.4846 22.264C27.1186 22.156 26.7256 22.102 26.3056 22.102C25.4476 22.102 24.7906 22.354 24.3346 22.858C23.8846 23.356 23.6596 24.034 23.6596 24.892C23.6596 25.756 23.8786 26.41 24.3166 26.854C24.7606 27.298 25.3936 27.52 26.2156 27.52ZM41.5004 27.205C41.3804 27.373 41.2034 27.568 40.9694 27.79C40.7354 28.006 40.4444 28.216 40.0964 28.42C39.7484 28.618 39.3434 28.783 38.8814 28.915C38.4194 29.047 37.8974 29.113 37.3154 29.113C36.4154 29.113 35.6264 28.93 34.9484 28.564C34.2704 28.198 33.7454 27.664 33.3734 26.962C33.0014 26.254 32.8154 25.393 32.8154 24.379C32.8154 23.407 33.0164 22.564 33.4184 21.85C33.8264 21.136 34.3844 20.584 35.0924 20.194C35.8004 19.804 36.6134 19.609 37.5314 19.609C38.6834 19.609 39.5804 19.96 40.2224 20.662C40.8704 21.364 41.2304 22.306 41.3024 23.488C41.3144 23.68 41.3204 23.866 41.3204 24.046C41.3204 24.22 41.3114 24.4 41.2934 24.586C41.2154 24.58 41.0534 24.574 40.8074 24.568C40.5674 24.556 40.2854 24.547 39.9614 24.541C39.6374 24.529 39.3104 24.52 38.9804 24.514C38.6564 24.502 38.3774 24.496 38.1434 24.496C37.5374 24.496 36.9164 24.526 36.2804 24.586C35.6444 24.646 35.0774 24.715 34.5794 24.793C34.5854 24.949 34.6004 25.102 34.6244 25.252C34.6484 25.402 34.6784 25.546 34.7144 25.684C34.8164 26.05 35.0024 26.368 35.2724 26.638C35.5424 26.902 35.8634 27.106 36.2354 27.25C36.6134 27.394 37.0124 27.466 37.4324 27.466C37.8764 27.466 38.2634 27.4 38.5934 27.268C38.9234 27.136 39.2054 26.974 39.4394 26.782C39.6794 26.59 39.8714 26.407 40.0154 26.233C40.1654 26.059 40.2794 25.93 40.3574 25.846C40.3934 25.876 40.4624 25.942 40.5644 26.044C40.6724 26.14 40.7864 26.257 40.9064 26.395C41.0324 26.533 41.1494 26.674 41.2574 26.818C41.3714 26.956 41.4524 27.085 41.5004 27.205ZM34.6064 23.587C35.0384 23.515 35.5454 23.452 36.1274 23.398C36.7154 23.344 37.3814 23.317 38.1254 23.317C38.5154 23.317 38.8454 23.323 39.1154 23.335C39.3914 23.341 39.5834 23.35 39.6914 23.362C39.6914 23.164 39.6674 22.954 39.6194 22.732C39.5534 22.432 39.4334 22.141 39.2594 21.859C39.0854 21.577 38.8484 21.343 38.5484 21.157C38.2544 20.965 37.8824 20.869 37.4324 20.869C36.9164 20.869 36.4454 20.98 36.0194 21.202C35.5994 21.418 35.2634 21.73 35.0114 22.138C34.7594 22.54 34.6244 23.023 34.6064 23.587ZM42.9811 29.374C42.9811 29.05 42.9841 28.645 42.9901 28.159C43.0021 27.667 43.0141 27.127 43.0261 26.539C43.0441 25.945 43.0621 25.327 43.0801 24.685C43.0981 24.037 43.1191 23.389 43.1431 22.741C43.1671 22.087 43.1911 21.46 43.2151 20.86C43.2391 20.26 43.2631 19.711 43.2871 19.213C43.3111 18.715 43.3351 18.295 43.3591 17.953C43.8151 17.857 44.3041 17.779 44.8261 17.719C45.3541 17.659 45.9451 17.629 46.5991 17.629C47.3491 17.629 47.9971 17.731 48.5431 17.935C49.0891 18.133 49.5091 18.445 49.8031 18.871C50.0971 19.297 50.2441 19.843 50.2441 20.509C50.2441 21.277 50.0971 21.916 49.8031 22.426C49.5151 22.93 49.0861 23.305 48.5161 23.551C47.9521 23.797 47.2561 23.92 46.4281 23.92C46.2061 23.92 45.9601 23.911 45.6901 23.893C45.4261 23.869 45.1861 23.836 44.9701 23.794C44.9641 23.98 44.9551 24.28 44.9431 24.694C44.9311 25.102 44.9161 25.576 44.8981 26.116C44.8861 26.656 44.8741 27.214 44.8621 27.79C44.8501 28.366 44.8441 28.909 44.8441 29.419C44.7421 29.419 44.6071 29.416 44.4391 29.41C44.2711 29.41 44.0941 29.407 43.9081 29.401C43.7281 29.401 43.5541 29.395 43.3861 29.383C43.2241 29.377 43.0891 29.374 42.9811 29.374ZM44.9611 22.273C45.1591 22.303 45.3811 22.33 45.6271 22.354C45.8731 22.378 46.1221 22.39 46.3741 22.39C46.7701 22.39 47.1451 22.336 47.4991 22.228C47.8531 22.114 48.1411 21.925 48.3631 21.661C48.5911 21.397 48.7051 21.031 48.7051 20.563C48.7051 19.963 48.5221 19.549 48.1561 19.321C47.7961 19.093 47.3191 18.979 46.7251 18.979C46.4971 18.979 46.2421 18.991 45.9601 19.015C45.6781 19.039 45.3661 19.072 45.0241 19.114C45.0241 19.15 45.0211 19.273 45.0151 19.483C45.0151 19.687 45.0121 19.93 45.0061 20.212C45.0061 20.494 45.0031 20.782 44.9971 21.076C44.9911 21.364 44.9851 21.619 44.9791 21.841C44.9731 22.063 44.9671 22.207 44.9611 22.273ZM58.8639 29.185C58.8639 29.083 58.8609 28.93 58.8549 28.726C58.8489 28.516 58.8459 28.312 58.8459 28.114C58.8459 27.91 58.8459 27.76 58.8459 27.664C58.8039 27.736 58.7109 27.853 58.5669 28.015C58.4229 28.177 58.2189 28.348 57.9549 28.528C57.6969 28.708 57.3699 28.861 56.9739 28.987C56.5779 29.113 56.1069 29.176 55.5609 29.176C54.7569 29.176 54.0699 29.002 53.4999 28.654C52.9299 28.3 52.4949 27.808 52.1949 27.178C51.9009 26.548 51.7539 25.819 51.7539 24.991C51.7539 24.217 51.9039 23.497 52.2039 22.831C52.5039 22.159 52.9539 21.616 53.5539 21.202C54.1539 20.788 54.9039 20.581 55.8039 20.581C56.3439 20.581 56.8239 20.641 57.2439 20.761C57.6699 20.881 58.0239 21.025 58.3059 21.193C58.5939 21.355 58.7979 21.499 58.9179 21.625C58.9239 21.361 58.9389 21.034 58.9629 20.644C58.9929 20.254 59.0229 19.84 59.0529 19.402C59.0829 18.964 59.1129 18.541 59.1429 18.133C59.1729 17.719 59.1999 17.356 59.2239 17.044C59.2539 16.732 59.2749 16.513 59.2869 16.387C59.5269 16.387 59.7909 16.399 60.0789 16.423C60.3729 16.447 60.6249 16.48 60.8349 16.522C60.7269 17.926 60.6429 19.324 60.5829 20.716C60.5289 22.102 60.4929 23.503 60.4749 24.919C60.4569 26.329 60.4479 27.766 60.4479 29.23C60.3579 29.23 60.2049 29.227 59.9889 29.221C59.7789 29.221 59.5659 29.218 59.3499 29.212C59.1339 29.2 58.9719 29.191 58.8639 29.185ZM55.9929 27.52C56.4069 27.52 56.7759 27.46 57.0999 27.34C57.4239 27.214 57.6999 27.064 57.9279 26.89C58.1559 26.71 58.3419 26.533 58.4859 26.359C58.6359 26.179 58.7409 26.035 58.8009 25.927C58.8009 25.789 58.8009 25.588 58.8009 25.324C58.8069 25.054 58.8099 24.772 58.8099 24.478C58.8159 24.178 58.8189 23.899 58.8189 23.641C58.8249 23.383 58.8309 23.191 58.8369 23.065C58.6989 22.939 58.4919 22.801 58.2159 22.651C57.9459 22.501 57.6279 22.372 57.2619 22.264C56.8959 22.156 56.5029 22.102 56.0829 22.102C55.2249 22.102 54.5679 22.354 54.1119 22.858C53.6619 23.356 53.4369 24.034 53.4369 24.892C53.4369 25.756 53.6559 26.41 54.0939 26.854C54.5379 27.298 55.1709 27.52 55.9929 27.52ZM68.8568 19.393C69.1328 19.441 69.3908 19.498 69.6308 19.564C69.8708 19.63 70.0748 19.69 70.2428 19.744C70.4108 19.792 70.5128 19.825 70.5488 19.843C70.4468 20.245 70.2998 20.752 70.1078 21.364C69.9158 21.97 69.6968 22.627 69.4508 23.335C69.2108 24.043 68.9558 24.763 68.6858 25.495C68.4218 26.221 68.1608 26.911 67.9028 27.565C67.6508 28.219 67.4168 28.786 67.2008 29.266C67.0088 29.302 66.7448 29.32 66.4088 29.32C66.2648 29.32 66.1238 29.314 65.9858 29.302C65.8478 29.29 65.7308 29.278 65.6348 29.266C65.2928 28.558 64.9598 27.805 64.6358 27.007C64.3118 26.203 63.9998 25.384 63.6998 24.55C63.3998 23.716 63.1178 22.894 62.8538 22.084C62.5958 21.274 62.3588 20.509 62.1428 19.789C62.2208 19.765 62.3288 19.738 62.4668 19.708C62.6048 19.672 62.7518 19.636 62.9078 19.6C63.0638 19.558 63.2168 19.519 63.3668 19.483C63.5168 19.447 63.6428 19.414 63.7448 19.384C63.8408 19.768 63.9758 20.242 64.1498 20.806C64.3238 21.364 64.5158 21.958 64.7258 22.588C64.9418 23.218 65.1578 23.839 65.3738 24.451C65.5958 25.057 65.8028 25.609 65.9948 26.107C66.1868 26.599 66.3428 26.986 66.4628 27.268L66.3368 27.295C66.4928 26.923 66.6608 26.488 66.8408 25.99C67.0208 25.486 67.2068 24.946 67.3988 24.37C67.5968 23.794 67.7888 23.212 67.9748 22.624C68.1608 22.03 68.3288 21.457 68.4788 20.905C68.6288 20.347 68.7548 19.843 68.8568 19.393Z" fill="#565656"/>
<rect x="99.0571" y="9.91675" width="34" height="17" rx="2" fill="#C2C2C2" stroke="black" stroke-width="0.8"/>
<path d="M87.7241 19.4308C87.7241 18.8585 87.9693 18.3137 88.3976 17.9341L95.8131 11.3618C97.1035 10.218 99.1396 11.1342 99.1396 12.8585V26.3646C99.1396 26.8344 98.9742 27.2892 98.6724 27.6493L91.2569 36.4967C90.0571 37.9281 87.7241 37.0797 87.7241 35.2119V19.4308Z" fill="#C2C2C2" stroke="black" stroke-width="0.8"/>
<path d="M97.1143 7.40399L97.5263 2.56932L99.3074 2.01422L101.089 1.45912L103.843 5.30694L107.591 19.1989L100.862 21.296L97.1143 7.40399Z" fill="white" stroke="black" stroke-width="0.8"/>
<path d="M87.1988 20.3858C87.3549 19.8254 88.1805 19.9382 88.1805 20.52V30.7894C88.1805 30.9829 88.0687 31.1591 87.8936 31.2417L84.602 32.7927C84.2148 32.9751 83.7924 32.6185 83.9072 32.2063L87.1988 20.3858Z" fill="#C2C2C2" stroke="black" stroke-width="0.8"/>
<path d="M88.4951 18.1997C87.7219 18.1997 87.0951 18.8265 87.0951 19.5997V39.2146C87.0951 39.9878 87.7219 40.6146 88.4951 40.6146H120.742C121.515 40.6146 122.142 39.9878 122.142 39.2146V19.5997C122.142 18.8265 121.515 18.1997 120.742 18.1997H88.4951Z" fill="white" stroke="black" stroke-width="0.8"/>
<path d="M122.114 19.5554C122.114 19.3015 122.114 19.1745 122.144 19.0557C122.171 18.9459 122.217 18.8416 122.279 18.7471C122.346 18.6449 122.44 18.5588 122.626 18.3866L130.446 11.1735C131.28 10.404 131.698 10.0193 132.052 9.99728C132.374 9.97733 132.686 10.1139 132.89 10.3641C133.114 10.6398 133.114 11.2073 133.114 12.3422V26.4933C133.114 26.6989 133.114 26.8017 133.094 26.9001C133.076 26.991 133.045 27.079 133.002 27.1614C132.956 27.2505 132.892 27.3305 132.763 27.4906L124.943 37.2006C124.084 38.2668 123.655 38.7999 123.28 38.8628C122.94 38.9196 122.596 38.7981 122.367 38.541C122.114 38.2568 122.114 37.5723 122.114 36.2033V19.5554Z" fill="white" stroke="black" stroke-width="0.8"/>
<path d="M114.772 12.5063C113.983 11.868 113.98 10.6663 114.766 10.0241L118.683 6.82056L118.685 6.81928L123.38 3.01887C123.96 2.54953 124.788 2.54325 125.375 3.00373L131.344 7.68676C132.136 8.30787 132.164 9.49693 131.403 10.1554L122.975 17.4501C122.388 17.9573 121.523 17.9715 120.921 17.4839L114.772 12.5063Z" fill="white" stroke="black" stroke-width="0.8"/>
<g clip-path="url(#clip0_100_192)">
<rect x="89.6143" y="34.2115" width="10.75" height="4" rx="2" fill="#565656"/>
<line x1="93.1143" y1="34.2115" x2="93.1143" y2="50.2115" stroke="white"/>
<line x1="95.1143" y1="34.2115" x2="95.1143" y2="50.2115" stroke="white"/>
<line x1="97.1143" y1="34.2115" x2="97.1143" y2="50.2115" stroke="white"/>
<line x1="99.1143" y1="34.2115" x2="99.1143" y2="50.2115" stroke="white"/>
</g>
<rect width="4.30164" height="0.982141" rx="0.49107" transform="matrix(0.954708 -0.297544 0.260468 0.965483 97.0847 1.99146)" fill="white" stroke="black"/>
<path d="M105.557 11.2705C105.101 10.7736 102.475 9.77985 100.991 9.65563C99.5069 9.40718 97.6804 9.28296 97.5102 8.53762C96.9955 7.9165 98.2262 8.78607 100.375 9.11002C101.888 9.11002 105.557 10.0356 105.557 11.2705Z" fill="black"/>
<defs>
<clipPath id="clip0_100_192">
<rect x="89.6143" y="34.2115" width="10.75" height="4" rx="2" fill="white"/>
</clipPath>
</defs>
</svg>
