<svg width="18" height="18" viewBox="0 0 18 18" fill="none" xmlns="http://www.w3.org/2000/svg">
<g clip-path="url(#clip0_361_36)">
<path d="M13.6429 13.3924C12.9915 13.3924 12.381 13.1419 11.9199 12.6807L9.43608 10.1969C9.26536 10.0262 8.95546 10.0262 8.78474 10.1969L6.29072 12.6909C5.82959 13.1521 5.21907 13.4026 4.56773 13.4026H4.0769L7.23247 16.5581C8.21412 17.5398 9.81649 17.5398 10.7981 16.5581L13.963 13.3933L13.6429 13.3924Z" fill="black"/>
<path d="M4.55755 4.59742C5.20889 4.59742 5.81941 4.84794 6.28054 5.30907L8.77456 7.80309C8.95456 7.98309 9.24497 7.98309 9.4259 7.80309L11.9199 5.31928C12.3811 4.85815 12.9916 4.60763 13.6429 4.60763H13.9435L10.7787 1.44278C9.79703 0.461134 8.19466 0.461134 7.21301 1.44278L4.05652 4.59742H4.55755Z" fill="black"/>
<path d="M16.5572 7.22227L14.644 5.30907C14.6041 5.32948 14.554 5.33876 14.5039 5.33876H13.6327C13.1817 5.33876 12.741 5.51876 12.4311 5.83979L9.94639 8.32361C9.71628 8.55371 9.40546 8.67433 9.10484 8.67433C8.79402 8.67433 8.4934 8.55371 8.2633 8.32361L5.76927 5.82959C5.44917 5.50948 5.00845 5.32856 4.56773 5.32856H3.49608C3.44598 5.32856 3.40608 5.31835 3.36618 5.29887L1.44278 7.22227C0.461131 8.20392 0.461131 9.80629 1.44278 10.7879L3.35598 12.7011C3.39587 12.6807 3.43577 12.6714 3.48587 12.6714H4.55752C5.00845 12.6714 5.44917 12.4914 5.75907 12.1704L8.25309 9.67639C8.70402 9.22546 9.49546 9.22546 9.94546 9.67639L12.4293 12.1602C12.7494 12.4803 13.1901 12.6612 13.6308 12.6612H14.5021C14.5522 12.6612 14.5921 12.6714 14.6422 12.6909L16.5554 10.7777C17.5389 9.79608 17.5389 8.20392 16.5572 7.22227Z" fill="black"/>
</g>
<defs>
<clipPath id="clip0_361_36">
<rect width="18" height="18" fill="white"/>
</clipPath>
</defs>
</svg>
