<svg width="22" height="22" viewBox="0 0 22 22" fill="none" xmlns="http://www.w3.org/2000/svg">
<g id="icon 1" clip-path="url(#clip0_161_225)">
<path id="Vector" d="M19.2856 3.90594H7.23919C6.64649 3.90594 6.16602 4.39843 6.16602 5.00594V13.0637C6.16602 13.6712 6.64649 14.1637 7.23919 14.1637H19.2856C19.8783 14.1637 20.3588 13.6712 20.3588 13.0637V5.00594C20.3588 4.39843 19.8783 3.90594 19.2856 3.90594Z" fill="#C2C2C2" stroke="black" stroke-width="0.8"/>
<path id="Vector_2" d="M2.32422 9.28143C2.32422 9.17869 2.35228 9.07804 2.40522 8.99087L4.89741 4.88552C5.18252 4.41587 5.88959 4.62294 5.88959 5.17609V13.9729C5.88959 14.0526 5.87268 14.1313 5.84006 14.2037L3.34787 19.7301C3.10653 20.2653 2.32422 20.0889 2.32422 19.4993V9.28143Z" fill="#C2C2C2" stroke="black" stroke-width="0.8"/>
<path id="Vector_3" d="M4.44065 5.95579C4.43902 5.89523 4.44649 5.83457 4.46276 5.77627L5.0777 3.57096C5.14253 3.33845 5.33701 3.17398 5.56065 3.16249L6.10769 3.13439L6.65469 3.10629C6.87834 3.0948 7.08111 3.23887 7.15828 3.46408L7.88996 5.60021C7.90933 5.6567 7.92001 5.71637 7.92168 5.77693L8.13132 13.5739C8.13964 13.8839 7.91352 14.1472 7.62623 14.162L5.18557 14.2874C4.8983 14.3021 4.65866 14.0627 4.65032 13.7528L4.44065 5.95579Z" fill="white" stroke="black" stroke-width="0.8"/>
<path id="Vector_4" d="M6.89643 2.69176L5.30632 2.77344C5.15872 2.78102 5.04253 2.91628 5.04682 3.07555C5.0511 3.23482 5.17423 3.35778 5.32183 3.3502L6.91194 3.26852C7.05954 3.26094 7.17572 3.12568 7.17144 2.96641C7.16716 2.80714 7.04403 2.68418 6.89643 2.69176Z" fill="white" stroke="black" stroke-width="0.995436"/>
<path id="Vector_5" d="M8.0678 9.32871C7.90419 8.97798 6.75182 8.01905 6.05077 7.72541C5.36384 7.36125 4.49774 7.01613 4.50039 6.56744C4.32296 6.13745 4.81723 6.81609 5.81607 7.32314C6.54529 7.55062 8.20811 8.62763 8.0678 9.32871Z" fill="black"/>
<path id="Vector_6" d="M2.15301 9.5046C2.20117 9.3099 2.48313 9.36011 2.46933 9.56086L2.03174 15.9293C2.02813 15.9818 2.00031 16.0291 1.95687 16.0565L0.608469 16.9088C0.485603 16.9864 0.331414 16.8692 0.367028 16.7252L2.15301 9.5046Z" fill="#C2C2C2" stroke="black" stroke-width="0.8"/>
<path id="Vector_7" d="M16.0762 9.49842C16.0762 9.46421 16.0762 9.44711 16.0794 9.43072C16.0825 9.41559 16.0875 9.40096 16.0945 9.38727C16.102 9.37247 16.1126 9.35922 16.1337 9.33265L20.2058 4.2118C20.344 4.03811 20.413 3.95127 20.4733 3.94119C20.5278 3.93206 20.5831 3.95223 20.6197 3.99461C20.6602 4.04145 20.6602 4.15348 20.6602 4.37755V13.9879C20.6602 14.0148 20.6602 14.0283 20.6581 14.0414C20.6562 14.0536 20.653 14.0654 20.6485 14.0768C20.6436 14.0892 20.6368 14.1007 20.6232 14.1238L16.5511 21.0172C16.4112 21.254 16.3412 21.3724 16.2785 21.3895C16.222 21.405 16.1617 21.3877 16.1211 21.3445C16.0762 21.2966 16.0762 21.1581 16.0762 20.8813V9.49842Z" fill="white" stroke="black" stroke-width="0.8"/>
<path id="Vector_8" d="M15.9991 9.2807H2.4616C2.28379 9.2807 2.13965 9.42849 2.13965 9.6107V21.3218C2.13965 21.5041 2.2838 21.6519 2.4616 21.6519H15.9991C16.1769 21.6519 16.321 21.5041 16.321 21.3218V9.6107C16.321 9.42849 16.1769 9.2807 15.9991 9.2807Z" fill="white" stroke="black" stroke-width="0.8"/>
<path id="Vector_9" d="M16.5514 1.11497L20.4442 3.5694C20.6081 3.67268 20.643 3.90325 20.5186 4.05962L16.4201 9.20866C16.3156 9.33995 16.1342 9.37185 15.998 9.28297L11.9867 6.66326C11.8232 6.55645 11.7928 6.32259 11.9225 6.16854L13.9517 3.75769L13.9524 3.75682L16.1404 1.18341C16.245 1.06037 16.4188 1.03142 16.5514 1.11497Z" fill="white" stroke="black" stroke-width="0.8"/>
<g id="Clip path group">
<mask id="mask0_161_225" style="mask-type:luminance" maskUnits="userSpaceOnUse" x="3" y="17" width="5" height="4">
<g id="clip0_153_259">
<path id="Vector_10" d="M6.53775 17.7663H4.73772C4.14503 17.7663 3.66455 18.2588 3.66455 18.8663V19.0038C3.66455 19.6113 4.14503 20.1038 4.73772 20.1038H6.53775C7.13044 20.1038 7.61092 19.6113 7.61092 19.0038V18.8663C7.61092 18.2588 7.13044 17.7663 6.53775 17.7663Z" fill="white"/>
</g>
</mask>
<g mask="url(#mask0_161_225)">
<g id="Group">
<path id="Vector_11" d="M6.53775 17.7663H4.73772C4.14503 17.7663 3.66455 18.2588 3.66455 18.8663V19.0038C3.66455 19.6113 4.14503 20.1038 4.73772 20.1038H6.53775C7.13044 20.1038 7.61092 19.6113 7.61092 19.0038V18.8663C7.61092 18.2588 7.13044 17.7663 6.53775 17.7663Z" fill="#565656"/>
<path id="Vector_12" d="M5.54248 17.7663V26.5663" stroke="white"/>
<path id="Vector_13" d="M6.61572 17.7663V26.5663" stroke="white"/>
<path id="Vector_14" d="M7.68896 17.7663V26.5663" stroke="white"/>
</g>
</g>
</g>
</g>
<defs>
<clipPath id="clip0_161_225">
<rect width="22" height="22" fill="white"/>
</clipPath>
</defs>
</svg>
